<svg width="64" height="64" viewBox="0 0 64 64" fill="none" xmlns="http://www.w3.org/2000/svg">
<rect width="64" height="64" rx="32" fill="white"/>
<path d="M31.4658 41.7852C31.4658 42.3451 31.4098 43.0169 31.2979 43.8008C31.2139 44.5846 31.0319 45.3405 30.752 46.0684C30.472 46.7682 30.0941 47.3701 29.6182 47.874C29.1423 48.3499 28.5124 48.5879 27.7285 48.5879C26.6927 48.5879 25.9089 48.21 25.377 47.4541C24.873 46.6982 24.5091 45.8024 24.2852 44.7666C24.0612 43.7028 23.9212 42.625 23.8652 41.5332C23.8372 40.4414 23.8092 39.5736 23.7812 38.9297C21.7656 39.2656 19.778 39.5596 17.8184 39.8115C17.7624 40.4554 17.6364 41.2533 17.4404 42.2051C17.2725 43.1569 16.9925 44.0807 16.6006 44.9766C16.2367 45.8444 15.7467 46.6003 15.1309 47.2441C14.543 47.888 13.8151 48.21 12.9473 48.21C12.2754 48.21 11.7435 47.972 11.3516 47.4961C10.9876 46.9922 10.7077 46.4043 10.5117 45.7324C10.3158 45.0605 10.1898 44.3747 10.1338 43.6748C10.1058 42.9469 10.0918 42.3451 10.0918 41.8691C10.0918 40.2734 10.2178 38.7057 10.4697 37.166C10.7217 35.5983 11.0156 34.0446 11.3516 32.5049C11.5195 31.693 11.7435 30.7412 12.0234 29.6494C12.3034 28.5576 12.6393 27.4378 13.0312 26.29C13.4512 25.1143 13.9271 23.9665 14.459 22.8467C15.0189 21.6989 15.6488 20.6771 16.3486 19.7812C17.0485 18.8854 17.8464 18.1576 18.7422 17.5977C19.638 17.0378 20.6318 16.7578 21.7236 16.7578C22.7874 16.7578 23.7113 16.9958 24.4951 17.4717C25.279 17.9476 25.9648 18.5775 26.5527 19.3613C27.1406 20.1452 27.6305 21.041 28.0225 22.0488C28.4144 23.0286 28.7363 24.0365 28.9883 25.0723C29.2682 26.0801 29.4922 27.0739 29.6602 28.0537C29.8561 29.0335 30.0241 29.9014 30.1641 30.6572C30.528 32.4769 30.8359 34.3245 31.0879 36.2002C31.3398 38.0479 31.4658 39.9095 31.4658 41.7852ZM23.3613 31.5811C23.3613 31.2451 23.3333 30.6992 23.2773 29.9434C23.2493 29.1595 23.1654 28.3896 23.0254 27.6338C22.8854 26.8499 22.6615 26.1641 22.3535 25.5762C22.0736 24.9603 21.6816 24.6523 21.1777 24.6523C20.8978 24.6523 20.6318 24.8483 20.3799 25.2402C20.1279 25.6042 19.904 26.0801 19.708 26.668C19.512 27.2279 19.3301 27.8577 19.1621 28.5576C19.0221 29.2575 18.8962 29.9294 18.7842 30.5732C18.6722 31.2171 18.5882 31.805 18.5322 32.3369C18.4762 32.8408 18.4342 33.2048 18.4062 33.4287C20.0859 33.2887 21.7376 33.0788 23.3613 32.7988V31.5811Z" fill="#D19844"/>
<path d="M51.4573 32.3789V33.4287C51.4293 34.4645 51.3733 35.5703 51.2893 36.7461C51.2053 37.9219 51.0653 39.0837 50.8694 40.2314C50.6734 41.3792 50.3795 42.485 49.9875 43.5488C49.5956 44.5846 49.0637 45.5085 48.3918 46.3203C47.72 47.1322 46.8941 47.776 45.9143 48.2519C44.9345 48.7279 43.7447 48.9658 42.345 48.9658C40.8333 48.9658 39.5035 48.6439 38.3557 48C37.2359 47.3561 36.2981 46.5163 35.5422 45.4805C34.7864 44.4167 34.2265 43.2409 33.8625 41.9531C33.4986 40.6374 33.3167 39.3076 33.3167 37.9639C33.3167 37.376 33.3866 36.7181 33.5266 35.9902C33.6386 35.2624 33.8486 34.5905 34.1565 33.9746C34.4644 33.3307 34.8564 32.7988 35.3323 32.3789C35.8362 31.931 36.4661 31.707 37.2219 31.707C38.0338 31.707 38.6357 31.931 39.0276 32.3789C39.4475 32.8268 39.7415 33.3867 39.9094 34.0586C40.1054 34.7025 40.2314 35.4163 40.2874 36.2002C40.3433 36.9561 40.4133 37.6699 40.4973 38.3418C40.5813 38.9857 40.7213 39.5316 40.9172 39.9795C41.1412 40.4274 41.5051 40.6514 42.009 40.6514C42.5969 40.6514 43.0588 40.3994 43.3948 39.8955C43.7307 39.3916 43.9687 38.8037 44.1086 38.1318C44.2766 37.432 44.3746 36.7321 44.4026 36.0322C44.4586 35.3324 44.4866 34.7865 44.4866 34.3945C44.4866 32.8268 44.3466 31.3011 44.0666 29.8174C43.8147 28.3057 43.4928 26.7799 43.1008 25.2402C42.9049 24.4564 42.6949 23.6585 42.4709 22.8467C42.247 22.0348 42.135 21.223 42.135 20.4111C42.135 19.4593 42.387 18.6895 42.8909 18.1016C43.3948 17.4857 44.1366 17.1777 45.1165 17.1777C45.8443 17.1777 46.4182 17.3317 46.8381 17.6396C47.2581 17.9196 47.678 18.3395 48.0979 18.8994C48.7418 19.7673 49.2737 20.7611 49.6936 21.8809C50.1415 23.0006 50.4915 24.1624 50.7434 25.3662C50.9954 26.57 51.1773 27.7878 51.2893 29.0195C51.4013 30.2233 51.4573 31.3431 51.4573 32.3789Z" fill="#D19844"/>
</svg>
